<?xml version="1.0" encoding="UTF-8"?>
<svg id="_レイヤー_1" data-name="レイヤー 1" xmlns="http://www.w3.org/2000/svg" viewBox="0 0 1920 1080">
  <g>
    <path d="M962.34,674.4v-30.08h55.3v-374.4h-55.3v-30.72h317.95l15.87,154.4h-24.06c-1.71-17.42-3.67-31.77-5.89-43.03-2.22-11.26-5.72-22.42-10.5-33.47-4.78-11.05-10.75-19.76-17.92-26.14-7.17-6.37-16.56-11.47-28.16-15.3-11.61-3.82-25.43-5.74-41.47-5.74h-77.82v163.84h28.16c22.86,0,37.63-5.76,44.29-17.28s9.98-30.72,9.98-57.6h24.06v179.84h-24.06c0-26.88-3.33-46.08-9.98-57.6s-21.42-17.28-44.29-17.28h-28.16v180.48h77.82c15.36,0,28.93-1.01,40.7-3.03,11.78-2.02,21.76-5.45,29.95-10.27,8.19-4.82,15.1-9.96,20.74-15.41,5.63-5.44,10.32-12.6,14.08-21.47,3.75-8.87,6.5-21.07,8.26-36.61,1.74-15.54,3.94-35.03,6.59-58.49h24.53l-24.02,175.36h-326.66Z"/>
    <path d="M635.53,674.4v-30.08h55.3v-378.88h-55.3v-30.08c12.97,1.28,44.2,1.92,93.7,1.92,53.93,0,88.4-.64,103.42-1.92v30.08h-69.12v378.88h52.74c12.62,0,24.14-2.02,34.56-6.08,10.41-4.05,18.94-8.96,25.6-14.72,6.66-5.76,12.71-13.44,18.18-23.04,5.46-9.6,9.55-18.02,12.29-25.28,2.73-7.25,5.2-16.64,7.42-28.16,2.22-11.52,3.58-20.05,4.1-25.6.51-5.54,1.28-13.01,2.3-22.4h24.06l-15.87,175.36h-293.38Z"/>
    <path d="M1510.44,126.41c-260.03,1.06-941.66,1.59-959.43,1.59-38.91,0-64.69-.8-77.36-2.4v37.6c11.62,0,21.82,1.34,30.62,4,3.17,1.08,4.75,2.14,4.75,3.2,0,.54.7,1.08,2.11,1.6l-195.34,247.2V163.2h57.02v-37.6c-13.38,1.6-44.88,2.4-94.51,2.4s-81.14-.8-94.51-2.4v37.6h57.02v473.6h-57.02v37.6c13.37-1.6,44.88-2.4,94.51-2.4s81.13.8,94.51,2.4v-37.6h-57.02v-167.57l52.81-66.81,108.76,216.79c1.06,1.6,2.46,5.34,4.22,11.2-6.34,4.27-19.18,6.4-38.54,6.4v37.6c14.43-1.6,45.38-2.4,92.86-2.4,38.35,0,64.04.8,77.06,2.4v-37.6h-15.31c-13.38,0-21.83-.92-25.34-2.8-3.52-1.86-7.05-6.26-10.56-13.2l-142.44-282.56,126.94-160.64c7.74-9.6,24.29-14.4,49.63-14.4h904.43l7.18-26.4c1.08-4.47,2.06-7.93,2.94-10.39Z"/>
    <g>
      <path d="M1684.99,636.8l-129.2-473.6h-55.48l-123.77,455.2c-1.77,6.94-5.11,11.74-10.03,14.4-4.93,2.68-16.55,4-34.85,4h-11.09v37.6c40.13-1.6,60.72-2.4,61.78-2.4,33.44,0,56.67.8,69.7,2.4v-37.6c-31.33,0-46.99-3.41-46.99-10.25,0-4.2.7-7.35,2.11-9.45l26.4-97.1,70.75-260.2,70.7,260.2,31.73,116.8h-50.16v37.6c13.37-1.6,44.46-2.4,93.27-2.4,45.24,0,74.02.8,86.34,2.4v-37.6h-51.22Z"/>
      <path d="M1510.44,126.41c-.88,2.46-1.86,5.92-2.94,10.39l-7.18,26.4,45.4-36.95c-10.65.05-22.45.11-35.28.16Z"/>
      <polygon points="1545.71 126.25 1500.32 163.2 1555.8 163.2 1545.71 126.25"/>
    </g>
  </g>
  <g>
    <path d="M256.99,801.3l6.4-5.2c1.6-1.4,2.2-2,3.6-2,.6,0,1.8,1.2,2.4,1.6l10,8.4c.8.6,1.4,1.4,1.4,2.8,0,2.8-4.2,5.8-6.8,7.6v15.6c0,1,.8,17.4.8,18,0,6.6-5.2,9.6-11.4,9.6s-5.8-6.2-5.4-10.2h-33c0,8.2-.2,44.2-.2,51.6,0,6.6.8,57.4.8,59.2,0,12-9.8,12-11.6,12-5.6,0-6.6-2.6-6.6-6,0-.8.2-3.2.2-4.2,1.6-19.2,1.6-52.4,1.6-89.2,0-19-.4-51.4-1.6-68.6-.2-4.2-1.4-7.4-2.2-10l20,9h31.6ZM224.99,806.1v17.2h33.2v-17.2h-33.2ZM224.99,828.1v14.6h33.2v-14.6h-33.2ZM259.59,915.5c-12.4,0-16.6.4-21.6,1.2l-3.4-7.2c9.6.8,19,1.2,28.6,1.2h11.6c1.4-5.4,2-10.2,2-16.8h-10c-12.4,0-16.6.4-21.6,1.2l-3.4-7.2c9.6.8,19,1.2,28.6,1.2h17.2c3-6.2,8.4-22,7-31.4l19.8,9.2c1.2.6,2,1.4,2,2.6,0,.6,0,3.8-6.4,4.2-10,8.8-14.4,12.2-18.8,15.4h16l6.2-7.2c1.2-1.2,2.4-2.4,3.4-2.4,1.2,0,2,.8,3.4,2.2l7.4,7c1.6,1.4,1.8,2.2,1.8,3,0,1.8-1.8,2.2-3,2.2h-34.8c-.2,7-1,12.2-2.2,16.8h21.4l5.8-6.8c1.4-1.8,2.4-2.6,3.4-2.6s2,.8,3.4,2.2l7.2,6.8c1.8,1.8,2,2.2,2,3,0,1.8-1.4,2.2-3,2.2h-38c10.4,13.6,30,23.4,44.8,22.4v1.4c-3,1.8-5.2,3.2-10.6,8.6,1.6.2,4,.4,8,.4,10,0,11-1.8,11-8.8v-92h-33c.8,6.4-2.4,10-11,10-.6,0-6.2,0-6.2-5.8,0-6.6.2-35.4.2-41.4,0-3.8-.2-7.6-1.8-18l19,9h32l5.4-5.4c.8-.8,2-2,3.2-2,1,0,1.8.4,2.6,1.2l11.2,9.6c.8.8,1.4,1.6,1.4,2.6,0,1.6-.6,2.2-7,7.4,0,5.6-.4,17-.4,35.6,0,14.2,1,76.2,1,88.8s0,19-8.8,25.4c-2.4,1.8-8,5.4-17,6.8-1.2-5.2-3.2-14.4-11.8-21.4-1.8,2.2-2.6,3.2-4,5.8-18-12.4-22.2-18.4-32-39.4-7.8,21.8-27,37.2-53.6,41.4v-1.4c6.4-3.8,31.8-18.2,39.2-40.8h-13.8ZM247.79,858.3c10.2,1.2,28.4,6.2,28.4,19.2,0,5.2-3.4,9-8.2,9-6.2,0-7.6-4.6-9.6-10.2-1.8-5-5-12.8-10.8-16.8l.2-1.2ZM311.39,806.1v17.2h33.4v-17.2h-33.4ZM311.39,828.1v14.6h33.4v-14.6h-33.4Z"/>
    <path d="M593.59,809.7h-64.4v34.8h28.2l7.2-7.4c.6-.8,1.4-1.8,2.2-1.8s1.8.8,2.4,1.2l10.8,9c1,1,2.4,1.8,2.4,3,0,2.4-4.2,5.4-6.4,6.8-.8,28.6,1.2,76.8,2.6,94.6,0,1.2.4,5.8.4,6.6,0,9.8-12,10.2-12.4,10.2-6.8,0-6.6-5-6.4-11h-105.4c.6,12-11.2,12-12.6,12-2.8,0-6.6-.6-6.6-6.2,0-.8.2-3,.2-4,.2-4,2.2-56.2,2.2-82,0-20.8-.6-32-2.8-42.6l22.6,11.6h21.4v-34.8h-35.2c-14,0-17.8.6-21.6,1.4l-3.4-7.4c9.4.8,19,1.2,28.6,1.2h116.4l9.4-10.2c.8-1,1.8-2.6,3.2-2.6,1.2,0,2.6,1.2,3.8,2.2l14.2,10.2c1,.6,2,1.8,2,3,0,2-1.8,2.2-3,2.2ZM560.39,909.7c-2.2,7.6-13,9.6-25.6,9.6-9.4,0-21.8-1.4-21.8-15.4v-54.6h-17.6c-.2,4.2-.8,16.6-1.6,23.4-2.8,23.2-18.4,41.8-39,50.6v27.6h105.6v-41.2ZM454.79,849.3v71c22.6-20,23.4-43.8,24.4-71h-24.4ZM512.99,809.7h-17.6v34.8h17.6v-34.8ZM560.39,849.3h-31.2v47c0,5.2,1.8,6.4,7.2,6.4,6.8,0,9.6-3.6,12.2-21.6h1.6c1.4,7,2.4,12.6,5.4,18,.4.8,4.2,4.2,4.8,5.2v-55Z"/>
    <path d="M671.79,833.5c-12.2,0-16.6.4-21.6,1.2l-3.2-7.2c12,1,26.2,1.2,28.4,1.2h50.4c0-25.4-1.4-31-5.4-39.8l26.6,5.4c1.4.2,2.6,1,2.6,2.4,0,1.8-2.4,4-6.4,5.6-.2,4.2-.2,22.6-.4,26.4h49.4l9.4-12.2c1.2-1.6,2-2.6,3-2.6s1.8.6,3.8,2.2l14.4,12.2c1,.8,2,1.6,2,3,0,1.8-1.6,2.2-3,2.2h-53.2l14.6,8.4c1.2.6,2,1.2,2,2.4,0,2.2-2.6,3.6-7.2,4.4-3.8,16-11.8,44-33.2,69.4,22.8,17.8,51.2,26.4,80,26.4v1.4c-11.8,5.8-17,15.4-18.8,21.4-23.6-5-48.8-14.8-72.6-37.2-33.2,30.6-74,35.8-87.2,37.6l-.6-1.6c14.6-5.4,49.8-18.6,77.6-47-19.8-24.2-29.2-54.6-31-85.6h-20.4ZM696.59,833.5c5.6,38.8,25,62.8,36.4,74.2,22.4-30,27.2-63.6,26.6-74.2h-63Z"/>
    <path d="M1044.19,898.3h-80.4c-9.6,14.8-27.6,36-37,45,9.4-.4,54.8-4.4,66-5.4-12.2-13.2-17-16.2-20.4-18.6l.6-1c51.8,11.4,57.6,35.2,57.6,38.8,0,4.6-4.4,10-10.4,10-4.8,0-9.2-3.6-14-11.2-3.8-6.2-5.8-9.2-10-14.2-20.6,6.4-69.8,17.4-98.8,20.2-2.6,4.2-3.8,6.4-5.8,6.4-.4,0-2.2,0-3.2-2.8l-8.2-22.2c7.6,1.4,15.2,1.4,16.8,1.4,1.2,0,14.6-.6,21.8-.8,7-13,15-30.6,20.2-45.6h-46.2c-13.8,0-17.6.8-21.6,1.4l-3.2-7.4c9.4.8,19,1.2,28.4,1.2h118l9.6-11.6c2-2.4,2-2.6,3-2.6s1.6.4,3.8,2.2l14.4,11.6c.8.6,2,1.8,2,3,0,2.2-2,2.2-3,2.2ZM1042.79,820.5h-52.6c0,3,.6,16.4.6,19,0,9.4-9.2,9.8-11.6,9.8-4.6,0-6.4-2-6.4-5.8,0-6.4.8-16.6.6-23h-29.8c0,7,.2,19.4.2,21-.2,3.2-3.4,8-11.4,8-6.4,0-6.4-3.6-6.4-5.8,0-2,.8-10.6.8-12.4.2-5,.2-8.2,0-10.8h-28.2c-12.2,0-16.6.6-21.6,1.4l-3.2-7.4c12.2,1.2,26.2,1.2,28.4,1.2h24.6c-.8-17.2-1.2-19.2-3.8-27.4l22,6.4c3,.8,4.6,1.6,4.6,3.8,0,1.8-1.8,3.2-6,5.8v11.4h29.8c-.4-19.4-2-23.6-4.2-28.4l23.4,7c2.8.8,3.8,1.8,3.8,3.8,0,3-3.6,4.4-5.8,5.4-.2,7.2-.2,7.6-.4,12.2h23.2l8.8-11.2c1.6-2,2-2.6,3-2.6.8,0,1.2.2,3.8,2.2l14.8,11.4c1,.8,2,2.2,2,3,0,1.8-1.6,2-3,2ZM1022.99,859.9h-110.2c-12.4,0-16.6.4-21.6,1.4l-3.4-7.4c12.2,1,26.4,1.2,28.6,1.2h81.6l7.2-9.8c1.4-1.8,2-2.6,3.2-2.6,1,0,1.8.8,3.6,2.2l12,9.8c1,.8,2,1.8,2,3,0,1.8-1.6,2.2-3,2.2Z"/>
    <path d="M1166.59,847.7c-1.6,0-2.6-.2-3.8-.4-15.6,21.4-50.2,41.8-70.6,46.2l-.4-1.2c19.8-11.8,49.4-39.2,57.6-62.4l20.2,12c1.6,1,1.6,2,1.6,2.6,0,3.2-3.4,3.2-4.6,3.2ZM1257.19,968.9c-43.4-9.6-63.4-30.8-72.6-41-24,24-56.8,36-90.6,39l-.4-1.6c47.8-13,72.6-40.2,81.4-49.8-15.4-23-19-42-21-54l1.6-.6c3,7.8,10.8,26.6,27.4,45,11.2-14.4,19.8-31,22.2-49.2l20.4,13.6c1.4,1,2.4,2.2,2.4,3.6,0,2.4-2,3.2-7.4,3.6-3.6,6.6-12.8,23.6-26.4,39.8,23,20.6,50.8,28.4,81.6,28.8l.4,1.2c-7,3.8-15,11.4-19,21.6ZM1271.59,826.7h-151.6c-12.2,0-16.6.6-21.6,1.4l-3.2-7.4c12,1.2,26.2,1.2,28.4,1.2h51c0-13.6-.2-23.2-5.6-35.2l26.4,7c1,.2,3.2,1,3.2,2.8,0,3.4-5,4.8-6.6,5.2-.6,8.4-.6,11.8-.8,20.2h50l9.6-12.2c1.6-2,2.2-2.4,3-2.4,1,0,1.6.2,3.8,2l15,12.2c1,.8,2,1.8,2,3.2,0,1.8-1.6,2-3,2ZM1252.79,883.9c-5.2,0-5.8-.8-11.8-11.2-11.2-19.4-24.4-29.2-36.2-37.2l.4-.6c25.6,2.2,56.8,23.6,56.8,39.4,0,2.8-1,9.6-9.2,9.6Z"/>
    <path d="M1315.79,847.7c7.4,0,33.4,0,33.4,17.6,0,6.4-5.2,10.2-9.4,10.2-5.2,0-6.8-2.8-11.6-11.6-6.2-11.6-8.8-13-12.6-15.2l.2-1ZM1369.59,834.7c-2.2,18.4-11.8,59.8-14.2,68.6-4,13.8-6,21-6,26.4,0,2.6,1.4,6.8,2.2,9.4.8,2.4,2.4,7.4,2.4,11.6,0,8.8-5.8,12.8-11.2,12.8-10.2,0-10.2-10-10.2-13.2,0-2,1.6-11.2,1.6-13.2,0-3-1-10.8-5.4-15.2-1-1-6.8-4.4-7.8-5v-.8c13.2-2.2,14.6-4.2,17.4-8.2,4.8-7,25.6-61.8,30.4-73.4l.8.2ZM1328.59,795.7c11.2-.2,32.6,5,32.6,20,0,6.2-4.2,11.2-9.4,11.2-6.4,0-8.8-6-11-11-5-11.4-7.8-14.2-12.8-18.8l.6-1.4ZM1348.79,965.7c4.6-3.8,13.8-11.8,21.8-26.8,8.6-16.2,11.4-33,11.4-47.6,0-5.4-.2-12-1.4-17.2l21.6,5.8c1.2.4,3.4,1.2,3.4,2.8,0,1.8-2.8,3.6-6.2,6-1.2,32.2-12.2,65.2-50.2,78l-.4-1ZM1430.19,824.5c-2.2,3-4.2,5.4-23,26,10.8-.6,14.2-.8,44.4-3.2-4.6-4.4-9.4-6.8-12.4-8.4l.2-1.2c8.2.6,42.6,3.2,42.6,23,0,6.6-4.4,10.2-9.2,10.2-4.2,0-6.4-2.2-10.4-8.2-1-1.6-6-10-7.4-11.8-4.4,1.2-26.6,7.2-31.6,8.6-3.6,1-30.6,7-36.2,8.6-3.4,5-3.6,5.2-5.2,5.2-2,0-2.6-1.4-3.2-2.8l-9.2-21.2c5,1.2,10,2.2,16,2.2,2.4,0,13.6-.6,15.4-.6,4-13.4,6.6-22.2,7.2-26.4h-15.8c-14,0-17.8.8-21.8,1.4l-3.2-7.4c9.4.8,19,1.2,28.6,1.2h17.2c0-6.8.2-20.2-4.8-28.8l25.4,6.6c1,.2,3,1.2,3,2.8,0,1.4,0,2-7.4,7v12.4h32.6l8-12.2c.6-.8,1.8-2.4,3-2.4s2.8,1.2,3.8,2l13.4,12.2c1.2,1.2,2,1.8,2,3,0,2.2-2,2.2-3,2.2h-59ZM1429.39,875.7c2.6.8,3.2,2,3.2,3.2,0,2.2-1.8,3.4-6,6.2,0,4.8-.8,28-.8,30.4,0,6.4.6,34.4.6,40,0,6.4-6.8,8.2-9.6,8.2-7,0-7-4.4-7-6.2,0-2.2.6-12.2.6-14.2,1.2-22.8,1.2-36.8,1.2-42.8,0-18-.8-23-2.4-30.6l20.2,5.8ZM1461.79,874.7c1.2.4,2.8,1.2,2.8,3.2,0,2.4-4.8,5.2-7.2,6.6,0,8.8-1.2,47.2-1.2,55.2,0,4,0,8,7.4,8,12.4,0,14.4-3.6,16.2-7,1.8-3.2,5.8-19.6,6.4-26.2h1.4c1.4,8.6,2.8,16.4,6.8,25,.6,1.4,6.2,5.6,6.2,7,0,.6-1.2,6-5.8,10-3.8,3.6-8.8,6.2-24.2,6.2-29.4,0-29.6-9-29.6-18.2s.6-51.2.6-59.8c0-6-1.2-12.4-1.8-15.8l22,5.8Z"/>
    <path d="M1707.19,874.5c-17.8-8.4-48.8-25.8-72.8-71.8-14,26.2-57.2,64.8-90.6,78.4l-1-1.2c40.8-29.8,66.4-71.6,70.4-78.2,5.2-8.6,6-11.4,7-16.2l21.6,7.4c2.6.8,3.2,2.4,3.2,3.2,0,2.4-4.8,3.6-7.2,4.4,12.8,19.8,44.4,47.4,89.4,54.6v1.2c-9,3.8-15.8,9.6-20,18.2ZM1709.19,900.7h-79c-9.2,15.8-26.6,35.8-33,42.8,49.2-3.8,54.6-4.2,74.8-7-7.2-11.4-16.6-21.8-21.2-26.8l1-1.2c11.6,4.8,51.2,24.8,51.2,49.4,0,3.2-2.2,11.2-10,11.2-6.4,0-10.4-5.2-13-13.6-2-6.4-2.8-9-5.6-14.6-21.2,6.4-87.2,21.6-99.2,23.6-.8,2-1.4,4.2-3.4,4.2-2.2,0-3.4-3-3.8-4.2l-8.8-22c6.2,1.2,11.4,2.2,19.6,2.2,2.2,0,9.6-.6,12.8-.8,6.8-14.8,10.8-25.8,15-43.2h-28.6c-14,0-17.8.8-21.6,1.4l-3.4-7.4c9.6,1,19,1.2,28.6,1.2h95l11-12.2c2-2.4,2.4-2.6,3.4-2.6.8,0,1.2.2,3.6,2.2l15.6,12.4c.6.6,2,1.6,2,3,0,2-2,2-3,2ZM1665.19,865.9h-53.4c-12.2,0-16.6.6-21.6,1.4l-3.2-7.4c12,1.2,26.2,1.2,28.4,1.2h21.6l9.8-11.2c2-2.4,2.2-2.6,3.2-2.6,1.2,0,3,1.6,3.6,2.2l12.6,11.2c1.2,1.2,2,1.8,2,3.2,0,1.8-1.8,2-3,2Z"/>
  </g>
</svg>